<?xml version="1.0" standalone="no"?>
<!DOCTYPE svg PUBLIC "-//W3C//DTD SVG 20010904//EN"
 "http://www.w3.org/TR/2001/REC-SVG-20010904/DTD/svg10.dtd">
<svg version="1.0" xmlns="http://www.w3.org/2000/svg"
 width="981.000000pt" height="1280.000000pt" viewBox="0 0 981.000000 1280.000000"
 preserveAspectRatio="xMidYMid meet">
<metadata>
Created by potrace 1.15, written by Peter Selinger 2001-2017
</metadata>
<g transform="translate(0.000000,1280.000000) scale(0.100000,-0.100000)"
fill="#000000" stroke="none">
<path d="M4921 12767 c-72 -190 -219 -481 -360 -717 -255 -424 -695 -1051
-1471 -2095 -1036 -1393 -1918 -2615 -2216 -3070 -492 -752 -760 -1417 -856
-2125 -19 -146 -16 -567 5 -715 69 -465 235 -879 486 -1210 62 -81 221 -245
306 -315 755 -619 1872 -537 2593 189 311 312 510 683 646 1205 58 221 167
342 263 292 54 -27 88 -101 103 -224 11 -85 -2 -437 -26 -692 -112 -1212 -547
-2358 -1200 -3161 l-76 -94 239 -7 c280 -7 3183 -32 3188 -26 2 2 -24 39 -57
83 -96 127 -299 438 -383 585 -330 583 -556 1225 -670 1905 -57 342 -74 537
-96 1121 -11 293 -11 314 7 369 12 39 31 72 56 97 33 33 44 38 86 38 60 0 108
-31 150 -97 42 -66 58 -113 93 -281 109 -522 302 -903 618 -1218 159 -160 314
-268 525 -370 517 -248 1125 -246 1651 5 460 220 797 576 1019 1078 403 910
235 2008 -499 3258 -304 519 -987 1512 -2234 3250 -605 845 -841 1180 -1076
1530 -385 574 -623 989 -750 1310 -26 66 -49 122 -51 124 -2 2 -8 -8 -13 -22z"/>
</g>
</svg>
